<svg width="37" height="37" viewBox="0 0 37 37" fill="none" xmlns="http://www.w3.org/2000/svg">
<path d="M35.6999 1.83735C35.6999 1.47902 35.3415 1.29985 34.9832 1.12068C28.1749 -0.670983 20.829 1.65818 16.3499 7.03318L14.0207 9.72068L9.18319 8.46652C7.21236 7.74985 5.24153 8.64568 4.34569 10.4374L0.583195 17.0665C0.583195 17.0665 0.583195 17.2457 0.404028 17.2457C0.224862 17.7832 0.583195 18.1415 1.12069 18.3207L7.21236 19.5749C6.67486 21.1874 6.13736 22.7999 5.95819 24.4124C5.95819 24.7707 5.95819 24.9499 6.13736 25.129L11.5124 30.3249C11.6915 30.504 11.8707 30.504 12.229 30.504C13.8415 30.3249 15.6332 29.9665 17.2457 29.429L18.4999 35.3415C18.4999 35.6999 19.0374 36.0582 19.3957 36.0582C19.5749 36.0582 19.754 36.0582 19.754 35.879L26.3832 32.1165C27.9957 31.2207 28.7124 29.2499 28.354 27.4582L27.0999 22.2624L29.6082 19.9332C35.1624 15.8124 37.4915 8.64568 35.6999 1.83735ZM2.7332 16.8874L5.77903 11.3332C6.31653 10.2582 7.39153 9.89985 8.46653 10.2582L12.5874 11.3332L10.7957 13.4832C9.72069 14.9165 8.64569 16.3499 7.92903 17.9624L2.7332 16.8874ZM25.6665 31.0415L20.1124 34.2665L19.0374 29.0707C20.6499 28.354 22.0832 27.279 23.5165 26.204L25.8457 24.054L26.9207 28.1749C26.9207 29.2499 26.5624 30.504 25.6665 31.0415ZM28.5332 19.0374L22.2624 24.7707C19.5749 27.0999 16.1707 28.5332 12.5874 28.8915L7.92903 24.2332C8.46653 20.6499 9.89986 17.2457 12.229 14.5582L15.0957 11.3332L15.2749 11.154L17.7832 8.28735C21.7249 3.62902 28.1749 1.47902 34.0874 2.73318C35.3415 8.82485 33.3707 15.0957 28.5332 19.0374ZM26.3832 7.03318C24.4124 7.03318 22.979 8.64568 22.979 10.4374C22.979 12.229 24.5915 13.8415 26.3832 13.8415C28.354 13.8415 29.7874 12.229 29.7874 10.4374C29.7874 8.64568 28.354 7.03318 26.3832 7.03318ZM26.3832 12.229C25.4874 12.229 24.7707 11.5124 24.7707 10.6165C24.7707 9.72068 25.4874 9.00402 26.3832 9.00402C27.279 9.00402 27.9957 9.72068 27.9957 10.6165C27.9957 11.5124 27.279 12.229 26.3832 12.229Z" fill="white"/>
</svg>
