<svg width="41" height="33" viewBox="0 0 41 33" fill="none" xmlns="http://www.w3.org/2000/svg">
<path d="M39.984 5.24629C38.7747 3.12988 35.2977 2.70996 30.1579 4.02012C27.8251 2.20823 25.0305 1.0878 22.0921 0.786425C19.1538 0.485046 16.1899 1.01482 13.5379 2.31544C10.8859 3.61605 8.65245 5.63522 7.09182 8.14301C5.53119 10.6508 4.70613 13.5465 4.71059 16.5002C4.71017 17.214 4.76069 17.9268 4.86177 18.6334C1.14966 22.4127 -0.210889 25.6377 1.01528 27.7541C1.77114 29.0643 3.36685 29.7361 5.70161 29.7361C7.1277 29.7088 8.54675 29.5286 9.93442 29.1986L10.8415 28.9803C13.1742 30.7922 15.9688 31.9126 18.9072 32.214C21.8455 32.5153 24.8094 31.9856 27.4614 30.685C30.1134 29.3843 32.3469 27.3652 33.9075 24.8574C35.4681 22.3496 36.2932 19.4539 36.2887 16.5002C36.2891 15.7864 36.2386 15.0736 36.1375 14.367L36.7758 13.6951C40.0344 10.1678 41.143 7.24512 39.984 5.24629ZM20.4997 2.72676C23.6621 2.73149 26.727 3.82168 29.1821 5.81508C31.6372 7.80848 33.3335 10.5843 33.9875 13.6783C31.2329 16.3154 27.5375 19.0365 23.3551 21.4385C19.1727 23.8404 14.9903 25.7049 11.3286 26.7631C9.2423 24.9078 7.76993 22.4616 7.10707 19.7495C6.44421 17.0374 6.62225 14.1878 7.61752 11.5793C8.61279 8.97086 10.3782 6.72695 12.6792 5.14572C14.9801 3.5645 17.7078 2.72081 20.4997 2.72676ZM2.74536 26.7463C2.03989 25.5201 3.53481 23.135 5.38247 21.0354C6.08752 23.3914 7.33601 25.5489 9.02739 27.3342C5.13052 28.1404 3.23247 27.5693 2.74536 26.7463ZM20.4997 30.2736C17.9688 30.276 15.4865 29.5784 13.3274 28.258C16.7708 27.1158 20.5836 25.3689 24.3629 23.1854C28.1422 21.0018 31.552 18.583 34.2563 16.1643C34.2707 16.2756 34.2763 16.3879 34.2731 16.5002C34.2686 20.1518 32.8161 23.6525 30.234 26.2346C27.652 28.8166 24.1512 30.2692 20.4997 30.2736ZM31.9719 5.66621C35.852 4.87676 37.7668 5.43105 38.254 6.2541C38.7411 7.07715 38.254 8.99199 35.6336 11.965C34.9225 9.60792 33.6684 7.45051 31.9719 5.66621Z" fill="white"/>
</svg>
