<svg width="31" height="37" viewBox="0 0 31 37" fill="none" xmlns="http://www.w3.org/2000/svg">
<path d="M19.3801 0.452127C19.2639 0.340414 19.123 0.257676 18.9689 0.210635C18.8148 0.163594 18.6517 0.153577 18.493 0.181398C18.3342 0.209218 18.1843 0.274092 18.0553 0.370748C17.9264 0.467404 17.822 0.593117 17.7508 0.737674L12.4094 11.9748L6.66484 8.1451C6.44013 8.0002 6.16829 7.94729 5.90563 7.99732C5.64297 8.04735 5.40962 8.19649 5.25391 8.41385C2.02891 13.3017 0.382812 17.7025 0.382812 21.5154C0.382813 25.5247 1.97551 29.3699 4.81053 32.2049C7.64556 35.0399 11.4907 36.6326 15.5 36.6326C19.5093 36.6326 23.3544 35.0399 26.1895 32.2049C29.0245 29.3699 30.6172 25.5247 30.6172 21.5154C30.6172 12.865 25.2086 6.28064 19.3801 0.452127ZM15.5 34.617C12.0266 34.6125 8.69676 33.2308 6.2407 30.7747C3.78465 28.3186 2.40288 24.9888 2.39844 21.5154C2.39844 18.324 3.74219 14.5783 6.39609 10.3791L12.2582 14.2928C12.3779 14.3726 12.5132 14.4259 12.6552 14.4491C12.7971 14.4722 12.9424 14.4648 13.0813 14.4271C13.2208 14.3904 13.3505 14.3231 13.4609 14.2302C13.5712 14.1372 13.6596 14.0209 13.7195 13.8896L18.9602 2.90447C24.0832 8.16189 28.6016 14.0912 28.6016 21.5154C28.5971 24.9888 27.2154 28.3186 24.7593 30.7747C22.3032 33.2308 18.9734 34.6125 15.5 34.617Z" fill="white"/>
</svg>
