<svg width="33" height="41" viewBox="0 0 33 41" fill="none" xmlns="http://www.w3.org/2000/svg">
<path d="M29.7292 15.9259C30.6389 15.9259 31.599 16.0656 32.625 16.3794L26.8469 0.797266C25.8223 0.4835 24.8601 0.34375 23.9524 0.34375C16.3347 0.34375 12.3639 10.1827 4.74689 10.1827C3.83717 10.1827 2.87706 10.0423 1.85111 9.72917L0.375 10.2559L11.4562 40.6562H13.2118L7.66148 25.3792C8.68475 25.6929 9.61462 25.7648 10.523 25.7648C18.1421 25.7641 22.1122 15.9259 29.7292 15.9259ZM7.08972 23.8318L2.51895 11.2933C7.7878 12.6088 11.5053 9.38383 15.2194 6.28514C18.0265 3.94366 20.6367 1.68481 23.9518 1.68481C24.5578 1.68481 25.1867 1.76006 25.827 1.91056L30.5382 14.615C30.269 14.5939 29.9992 14.5833 29.7292 14.5835C25.4265 14.5835 22.2895 17.2468 19.256 19.8221C16.4704 22.1871 13.8387 24.4217 10.523 24.4217C9.91697 24.4224 8.37703 24.3162 7.08972 23.8318Z" fill="white"/>
</svg>
