<svg width="43" height="43" viewBox="0 0 43 43" fill="none" xmlns="http://www.w3.org/2000/svg">
<g clip-path="url(#clip0_1866_326)">
<path d="M21.5001 7.53691C21.8169 7.53691 22.1207 7.41107 22.3447 7.18707C22.5687 6.96307 22.6946 6.65926 22.6946 6.34247V2.28136C22.6946 1.96457 22.5687 1.66076 22.3447 1.43676C22.1207 1.21276 21.8169 1.08691 21.5001 1.08691C21.1833 1.08691 20.8795 1.21276 20.6555 1.43676C20.4315 1.66076 20.3057 1.96457 20.3057 2.28136V6.34247C20.3057 6.65926 20.4315 6.96307 20.6555 7.18707C20.8795 7.41107 21.1833 7.53691 21.5001 7.53691Z" fill="white"/>
<path d="M21.5001 35.4629C21.1833 35.4629 20.8795 35.5887 20.6555 35.8127C20.4315 36.0367 20.3057 36.3405 20.3057 36.6573V40.7184C20.3057 41.0352 20.4315 41.339 20.6555 41.563C20.8795 41.787 21.1833 41.9129 21.5001 41.9129C21.8169 41.9129 22.1207 41.787 22.3447 41.563C22.5687 41.339 22.6946 41.0352 22.6946 40.7184V36.6573C22.6946 36.3405 22.5687 36.0367 22.3447 35.8127C22.1207 35.5887 21.8169 35.4629 21.5001 35.4629Z" fill="white"/>
<path d="M9.93806 11.6337C10.1602 11.8356 10.4501 11.9464 10.7503 11.9442C10.9075 11.9451 11.0633 11.915 11.2088 11.8556C11.3544 11.7961 11.4867 11.7086 11.5983 11.5978C11.7103 11.4868 11.7991 11.3547 11.8598 11.2091C11.9204 11.0636 11.9517 10.9075 11.9517 10.7498C11.9517 10.5921 11.9204 10.436 11.8598 10.2904C11.7991 10.1449 11.7103 10.0128 11.5983 9.90174L8.75556 7.0709C8.52706 6.87522 8.23314 6.77297 7.93252 6.78458C7.63191 6.79619 7.34675 6.92081 7.13403 7.13354C6.9213 7.34626 6.79668 7.63142 6.78507 7.93203C6.77346 8.23265 6.87571 8.52657 7.07139 8.75507L9.93806 11.6337Z" fill="white"/>
<path d="M33.062 31.3659C32.9507 31.2546 32.8185 31.1662 32.6729 31.1059C32.5274 31.0457 32.3715 31.0146 32.214 31.0146C32.0565 31.0146 31.9005 31.0457 31.755 31.1059C31.6095 31.1662 31.4773 31.2546 31.3659 31.3659C31.2546 31.4773 31.1662 31.6095 31.1059 31.755C31.0457 31.9005 31.0146 32.0565 31.0146 32.214C31.0146 32.3715 31.0457 32.5274 31.1059 32.6729C31.1662 32.8185 31.2546 32.9507 31.3659 33.062L34.2445 35.9287C34.3552 36.0416 34.4871 36.1314 34.6327 36.1929C34.7782 36.2544 34.9346 36.2864 35.0926 36.287C35.4076 36.2825 35.7082 36.1538 35.9287 35.9287C36.1512 35.7049 36.276 35.4022 36.276 35.0866C36.276 34.7711 36.1512 34.4683 35.9287 34.2445L33.062 31.3659Z" fill="white"/>
<path d="M7.53691 21.5001C7.53691 21.1833 7.41107 20.8795 7.18707 20.6555C6.96307 20.4315 6.65926 20.3057 6.34247 20.3057H2.28136C1.96457 20.3057 1.66076 20.4315 1.43676 20.6555C1.21276 20.8795 1.08691 21.1833 1.08691 21.5001C1.08691 21.8169 1.21276 22.1207 1.43676 22.3447C1.66076 22.5687 1.96457 22.6946 2.28136 22.6946H6.34247C6.65926 22.6946 6.96307 22.5687 7.18707 22.3447C7.41107 22.1207 7.53691 21.8169 7.53691 21.5001Z" fill="white"/>
<path d="M40.7184 20.3057H36.6573C36.3405 20.3057 36.0367 20.4315 35.8127 20.6555C35.5887 20.8795 35.4629 21.1833 35.4629 21.5001C35.4629 21.8169 35.5887 22.1207 35.8127 22.3447C36.0367 22.5687 36.3405 22.6946 36.6573 22.6946H40.7184C41.0352 22.6946 41.339 22.5687 41.563 22.3447C41.787 22.1207 41.9129 21.8169 41.9129 21.5001C41.9129 21.1833 41.787 20.8795 41.563 20.6555C41.339 20.4315 41.0352 20.3057 40.7184 20.3057Z" fill="white"/>
<path d="M9.93777 31.3659L7.0711 34.2445C6.90337 34.4109 6.78874 34.6232 6.7417 34.8547C6.69465 35.0862 6.71731 35.3265 6.80681 35.5451C6.8963 35.7637 7.04861 35.9509 7.24448 36.083C7.44035 36.215 7.67098 36.286 7.90721 36.287C8.06524 36.2864 8.22158 36.2544 8.36715 36.1929C8.51272 36.1314 8.64464 36.0416 8.75527 35.9287L11.6339 33.062C11.8588 32.8371 11.9852 32.5321 11.9852 32.214C11.9852 31.8959 11.8588 31.5908 11.6339 31.3659C11.409 31.141 11.1039 31.0146 10.7858 31.0146C10.4677 31.0146 10.1627 31.141 9.93777 31.3659Z" fill="white"/>
<path d="M32.2502 11.9445C32.4074 11.9454 32.5632 11.9153 32.7088 11.8558C32.8543 11.7964 32.9866 11.7088 33.0983 11.5981L35.9649 8.71949C36.1874 8.4957 36.3123 8.19296 36.3123 7.87741C36.3123 7.56185 36.1874 7.25912 35.9649 7.03532C35.7411 6.81286 35.4384 6.68799 35.1228 6.68799C34.8073 6.68799 34.5045 6.81286 34.2808 7.03532L31.4021 9.90199C31.2902 10.013 31.2013 10.1451 31.1407 10.2907C31.08 10.4362 31.0488 10.5924 31.0488 10.75C31.0488 10.9077 31.08 11.0638 31.1407 11.2094C31.2013 11.355 31.2902 11.4871 31.4021 11.5981C31.5138 11.7088 31.6461 11.7964 31.7916 11.8558C31.9372 11.9153 32.093 11.9454 32.2502 11.9445Z" fill="white"/>
<path d="M21.6554 9.25686C19.2559 9.22606 16.9015 9.90944 14.8914 11.2201C12.8813 12.5308 11.3063 14.4096 10.3666 16.6176C9.42696 18.8257 9.16508 21.2632 9.61427 23.6205C10.0635 25.9777 11.2034 28.1482 12.8892 29.8559C14.5751 31.5637 16.7306 32.7316 19.0819 33.2112C21.4331 33.6908 23.8739 33.4604 26.0939 32.5494C28.3139 31.6383 30.2129 30.0877 31.5494 28.0947C32.8859 26.1017 33.5996 23.7562 33.5998 21.3566C33.6157 18.1695 32.3674 15.1062 30.1284 12.8381C27.8893 10.57 24.8424 9.28211 21.6554 9.25686ZM21.6554 31.0555C19.728 31.0863 17.8349 30.5428 16.2174 29.4941C14.5999 28.4454 13.3312 26.9391 12.5726 25.1669C11.8141 23.3947 11.6002 21.4369 11.9582 19.5427C12.3161 17.6486 13.2297 15.9038 14.5826 14.5306C15.9355 13.1574 17.6665 12.2179 19.5551 11.8318C21.4437 11.4457 23.4045 11.6305 25.1878 12.3625C26.9711 13.0945 28.4962 14.3408 29.5688 15.9425C30.6414 17.5442 31.2131 19.4289 31.211 21.3566C31.2237 23.908 30.2256 26.3607 28.4349 28.1782C26.6443 29.9957 24.2067 31.0302 21.6554 31.0555Z" fill="white"/>
</g>
<defs>
<clipPath id="clip0_1866_326">
<rect width="43" height="43" fill="white"/>
</clipPath>
</defs>
</svg>
