<svg width="43" height="43" viewBox="0 0 43 43" fill="none" xmlns="http://www.w3.org/2000/svg">
<path d="M5.92888 12.7151C5.76485 12.5054 5.69044 12.2393 5.72191 11.9749C5.75338 11.7106 5.88817 11.4694 6.09685 11.3041C7.5144 10.2641 9.12448 9.51615 10.8336 9.10373C13.4875 8.43185 17.5859 8.28068 22.0539 11.2537C29.3773 16.1416 35.4074 11.5057 35.6594 11.3041C35.8703 11.1633 36.1266 11.1072 36.3771 11.147C36.6276 11.1868 36.8539 11.3196 37.0108 11.5189C37.1677 11.7182 37.2437 11.9693 37.2236 12.2222C37.2035 12.4751 37.0887 12.711 36.9023 12.883C35.4848 13.923 33.8747 14.671 32.1656 15.0834C31.106 15.3522 30.017 15.4876 28.9238 15.4865C26.6226 15.4865 23.8679 14.8819 20.9453 12.9334C13.6219 8.04552 7.59177 12.6815 7.33982 12.883C7.13014 13.0471 6.86407 13.1215 6.59971 13.09C6.33536 13.0585 6.09419 12.9237 5.92888 12.7151ZM35.6594 20.7104C35.4074 20.9119 29.3773 25.5479 22.0539 20.66C17.5859 17.6869 13.4875 17.8381 10.8336 18.51C9.12448 18.9224 7.5144 19.6704 6.09685 20.7104C5.91042 20.8824 5.79571 21.1183 5.7756 21.3712C5.75549 21.624 5.83146 21.8752 5.98836 22.0745C6.14526 22.2738 6.37154 22.4066 6.62205 22.4464C6.87255 22.4862 7.12886 22.4301 7.33982 22.2893C7.59177 22.0877 13.6219 17.4518 20.9453 22.3397C23.8679 24.2881 26.6226 24.8928 28.9238 24.8928C30.017 24.8938 31.106 24.7584 32.1656 24.4897C33.8747 24.0772 35.4848 23.3293 36.9023 22.2893C37.0887 22.1173 37.2035 21.8813 37.2236 21.6285C37.2437 21.3756 37.1677 21.1245 37.0108 20.9252C36.8539 20.7259 36.6276 20.593 36.3771 20.5532C36.1266 20.5134 35.8703 20.5695 35.6594 20.7104ZM35.6594 30.1166C35.4074 30.3182 29.3773 34.9541 22.0539 30.0662C17.5859 27.0932 13.4875 27.2444 10.8336 27.9162C9.12448 28.3287 7.5144 29.0766 6.09685 30.1166C5.91042 30.2886 5.79571 30.5246 5.7756 30.7774C5.75549 31.0303 5.83146 31.2814 5.98836 31.4807C6.14526 31.68 6.37154 31.8128 6.62205 31.8527C6.87255 31.8925 7.12886 31.8364 7.33982 31.6955C7.59177 31.494 13.6219 26.858 20.9453 31.7459C23.8679 33.6944 26.6226 34.299 28.9238 34.299C31.7901 34.2868 34.5805 33.3763 36.9023 31.6955C37.0887 31.5235 37.2035 31.2876 37.2236 31.0347C37.2437 30.7819 37.1677 30.5307 37.0108 30.3314C36.8539 30.1321 36.6276 29.9993 36.3771 29.9595C36.1266 29.9197 35.8703 29.9758 35.6594 30.1166Z" fill="white"/>
</svg>
